<mxfile host="app.diagrams.net" modified="2023-11-08T16:29:45.589Z" agent="Mozilla/5.0 (X11; Linux x86_64) AppleWebKit/537.36 (KHTML, like Gecko) Chrome/118.0.0.0 Safari/537.36" etag="dkQYxW7Wo96wPPJkNpPy" version="22.0.8" type="github">
  <diagram id="C5RBs43oDa-KdzZeNtuy" name="Page-1">
    <mxGraphModel dx="1209" dy="583" grid="1" gridSize="10" guides="1" tooltips="1" connect="1" arrows="1" fold="1" page="1" pageScale="1" pageWidth="827" pageHeight="1169" math="0" shadow="0">
      <root>
        <mxCell id="WIyWlLk6GJQsqaUBKTNV-0" />
        <mxCell id="WIyWlLk6GJQsqaUBKTNV-1" parent="WIyWlLk6GJQsqaUBKTNV-0" />
        <mxCell id="WIyWlLk6GJQsqaUBKTNV-2" value="" style="rounded=0;html=1;jettySize=auto;orthogonalLoop=1;fontSize=11;endArrow=block;endFill=0;endSize=8;strokeWidth=1;shadow=0;labelBackgroundColor=none;edgeStyle=orthogonalEdgeStyle;" parent="WIyWlLk6GJQsqaUBKTNV-1" source="aQLnE09ZSkkCIFIolBy8-0" target="WIyWlLk6GJQsqaUBKTNV-7" edge="1">
          <mxGeometry relative="1" as="geometry">
            <mxPoint x="439" y="60" as="sourcePoint" />
            <mxPoint x="439" y="90" as="targetPoint" />
          </mxGeometry>
        </mxCell>
        <mxCell id="aQLnE09ZSkkCIFIolBy8-4" style="edgeStyle=orthogonalEdgeStyle;rounded=0;orthogonalLoop=1;jettySize=auto;html=1;" parent="WIyWlLk6GJQsqaUBKTNV-1" source="WIyWlLk6GJQsqaUBKTNV-7" target="aQLnE09ZSkkCIFIolBy8-5" edge="1">
          <mxGeometry relative="1" as="geometry">
            <mxPoint x="449" y="160" as="targetPoint" />
          </mxGeometry>
        </mxCell>
        <mxCell id="WIyWlLk6GJQsqaUBKTNV-7" value="Leer DB" style="rounded=1;whiteSpace=wrap;html=1;fontSize=12;glass=0;strokeWidth=1;shadow=0;" parent="WIyWlLk6GJQsqaUBKTNV-1" vertex="1">
          <mxGeometry x="379" y="90" width="120" height="40" as="geometry" />
        </mxCell>
        <mxCell id="aQLnE09ZSkkCIFIolBy8-0" value="Inicio" style="ellipse;whiteSpace=wrap;html=1;aspect=fixed;" parent="WIyWlLk6GJQsqaUBKTNV-1" vertex="1">
          <mxGeometry x="419" y="20" width="40" height="40" as="geometry" />
        </mxCell>
        <mxCell id="aQLnE09ZSkkCIFIolBy8-7" style="edgeStyle=orthogonalEdgeStyle;rounded=0;orthogonalLoop=1;jettySize=auto;html=1;" parent="WIyWlLk6GJQsqaUBKTNV-1" source="aQLnE09ZSkkCIFIolBy8-5" target="aQLnE09ZSkkCIFIolBy8-6" edge="1">
          <mxGeometry relative="1" as="geometry" />
        </mxCell>
        <mxCell id="aQLnE09ZSkkCIFIolBy8-5" value="Guardar DB" style="rounded=1;whiteSpace=wrap;html=1;" parent="WIyWlLk6GJQsqaUBKTNV-1" vertex="1">
          <mxGeometry x="379" y="140" width="120" height="40" as="geometry" />
        </mxCell>
        <mxCell id="aQLnE09ZSkkCIFIolBy8-10" value="" style="edgeStyle=orthogonalEdgeStyle;rounded=0;orthogonalLoop=1;jettySize=auto;html=1;" parent="WIyWlLk6GJQsqaUBKTNV-1" source="aQLnE09ZSkkCIFIolBy8-6" target="aQLnE09ZSkkCIFIolBy8-9" edge="1">
          <mxGeometry relative="1" as="geometry" />
        </mxCell>
        <mxCell id="aQLnE09ZSkkCIFIolBy8-6" value="w= random ()&lt;br&gt;bias = random ()&lt;br&gt;x1,x2 = valores DB&lt;br&gt;n = 0&lt;br&gt;itera = 0&lt;br&gt;conError= 0&lt;br&gt;pAceptable = 96%" style="rounded=1;whiteSpace=wrap;html=1;" parent="WIyWlLk6GJQsqaUBKTNV-1" vertex="1">
          <mxGeometry x="314" y="190" width="250" height="120" as="geometry" />
        </mxCell>
        <mxCell id="aQLnE09ZSkkCIFIolBy8-12" value="" style="edgeStyle=orthogonalEdgeStyle;rounded=0;orthogonalLoop=1;jettySize=auto;html=1;" parent="WIyWlLk6GJQsqaUBKTNV-1" source="aQLnE09ZSkkCIFIolBy8-9" target="aQLnE09ZSkkCIFIolBy8-11" edge="1">
          <mxGeometry relative="1" as="geometry" />
        </mxCell>
        <mxCell id="aQLnE09ZSkkCIFIolBy8-9" value="Net = formula net" style="whiteSpace=wrap;html=1;rounded=1;" parent="WIyWlLk6GJQsqaUBKTNV-1" vertex="1">
          <mxGeometry x="379" y="330" width="120" height="60" as="geometry" />
        </mxCell>
        <mxCell id="aQLnE09ZSkkCIFIolBy8-14" value="" style="edgeStyle=orthogonalEdgeStyle;rounded=0;orthogonalLoop=1;jettySize=auto;html=1;" parent="WIyWlLk6GJQsqaUBKTNV-1" source="aQLnE09ZSkkCIFIolBy8-11" target="aQLnE09ZSkkCIFIolBy8-13" edge="1">
          <mxGeometry relative="1" as="geometry" />
        </mxCell>
        <mxCell id="aQLnE09ZSkkCIFIolBy8-11" value="Out = formula Out" style="whiteSpace=wrap;html=1;rounded=1;" parent="WIyWlLk6GJQsqaUBKTNV-1" vertex="1">
          <mxGeometry x="379" y="410" width="120" height="60" as="geometry" />
        </mxCell>
        <mxCell id="maJuUDjPIXqnz5pIRUZ--1" value="" style="edgeStyle=orthogonalEdgeStyle;rounded=0;orthogonalLoop=1;jettySize=auto;html=1;" edge="1" parent="WIyWlLk6GJQsqaUBKTNV-1" source="aQLnE09ZSkkCIFIolBy8-13" target="maJuUDjPIXqnz5pIRUZ--0">
          <mxGeometry relative="1" as="geometry" />
        </mxCell>
        <mxCell id="aQLnE09ZSkkCIFIolBy8-13" value="Obtener Error_n" style="whiteSpace=wrap;html=1;rounded=1;" parent="WIyWlLk6GJQsqaUBKTNV-1" vertex="1">
          <mxGeometry x="379" y="490" width="120" height="60" as="geometry" />
        </mxCell>
        <mxCell id="maJuUDjPIXqnz5pIRUZ--3" value="" style="edgeStyle=orthogonalEdgeStyle;rounded=0;orthogonalLoop=1;jettySize=auto;html=1;" edge="1" parent="WIyWlLk6GJQsqaUBKTNV-1" source="maJuUDjPIXqnz5pIRUZ--0" target="maJuUDjPIXqnz5pIRUZ--2">
          <mxGeometry relative="1" as="geometry" />
        </mxCell>
        <mxCell id="maJuUDjPIXqnz5pIRUZ--14" value="Si" style="edgeLabel;html=1;align=center;verticalAlign=middle;resizable=0;points=[];" vertex="1" connectable="0" parent="maJuUDjPIXqnz5pIRUZ--3">
          <mxGeometry x="0.5667" y="2" relative="1" as="geometry">
            <mxPoint x="8" y="3" as="offset" />
          </mxGeometry>
        </mxCell>
        <mxCell id="maJuUDjPIXqnz5pIRUZ--8" value="" style="edgeStyle=orthogonalEdgeStyle;rounded=0;orthogonalLoop=1;jettySize=auto;html=1;" edge="1" parent="WIyWlLk6GJQsqaUBKTNV-1" source="maJuUDjPIXqnz5pIRUZ--0" target="maJuUDjPIXqnz5pIRUZ--7">
          <mxGeometry relative="1" as="geometry" />
        </mxCell>
        <mxCell id="maJuUDjPIXqnz5pIRUZ--13" value="No" style="edgeLabel;html=1;align=center;verticalAlign=middle;resizable=0;points=[];" vertex="1" connectable="0" parent="maJuUDjPIXqnz5pIRUZ--8">
          <mxGeometry x="-0.76" y="1" relative="1" as="geometry">
            <mxPoint x="-1" y="11" as="offset" />
          </mxGeometry>
        </mxCell>
        <mxCell id="maJuUDjPIXqnz5pIRUZ--0" value="e == 0" style="rhombus;whiteSpace=wrap;html=1;rounded=1;" vertex="1" parent="WIyWlLk6GJQsqaUBKTNV-1">
          <mxGeometry x="379" y="560" width="120" height="60" as="geometry" />
        </mxCell>
        <mxCell id="maJuUDjPIXqnz5pIRUZ--5" value="" style="edgeStyle=orthogonalEdgeStyle;rounded=0;orthogonalLoop=1;jettySize=auto;html=1;" edge="1" parent="WIyWlLk6GJQsqaUBKTNV-1" source="maJuUDjPIXqnz5pIRUZ--2" target="maJuUDjPIXqnz5pIRUZ--4">
          <mxGeometry relative="1" as="geometry" />
        </mxCell>
        <mxCell id="maJuUDjPIXqnz5pIRUZ--2" value="n ++" style="whiteSpace=wrap;html=1;rounded=1;" vertex="1" parent="WIyWlLk6GJQsqaUBKTNV-1">
          <mxGeometry x="379" y="690" width="120" height="30" as="geometry" />
        </mxCell>
        <mxCell id="maJuUDjPIXqnz5pIRUZ--6" style="edgeStyle=orthogonalEdgeStyle;rounded=0;orthogonalLoop=1;jettySize=auto;html=1;exitX=0;exitY=0.5;exitDx=0;exitDy=0;entryX=0;entryY=0.5;entryDx=0;entryDy=0;" edge="1" parent="WIyWlLk6GJQsqaUBKTNV-1" source="maJuUDjPIXqnz5pIRUZ--4" target="aQLnE09ZSkkCIFIolBy8-9">
          <mxGeometry relative="1" as="geometry" />
        </mxCell>
        <mxCell id="maJuUDjPIXqnz5pIRUZ--15" value="No" style="edgeLabel;html=1;align=center;verticalAlign=middle;resizable=0;points=[];" vertex="1" connectable="0" parent="maJuUDjPIXqnz5pIRUZ--6">
          <mxGeometry x="-0.9619" y="-3" relative="1" as="geometry">
            <mxPoint as="offset" />
          </mxGeometry>
        </mxCell>
        <mxCell id="maJuUDjPIXqnz5pIRUZ--17" value="" style="edgeStyle=orthogonalEdgeStyle;rounded=0;orthogonalLoop=1;jettySize=auto;html=1;" edge="1" parent="WIyWlLk6GJQsqaUBKTNV-1" source="maJuUDjPIXqnz5pIRUZ--4" target="maJuUDjPIXqnz5pIRUZ--16">
          <mxGeometry relative="1" as="geometry" />
        </mxCell>
        <mxCell id="maJuUDjPIXqnz5pIRUZ--4" value="n&amp;lt;= num_patrones" style="rhombus;whiteSpace=wrap;html=1;rounded=1;" vertex="1" parent="WIyWlLk6GJQsqaUBKTNV-1">
          <mxGeometry x="371" y="750" width="136" height="80" as="geometry" />
        </mxCell>
        <mxCell id="maJuUDjPIXqnz5pIRUZ--10" value="" style="edgeStyle=orthogonalEdgeStyle;rounded=0;orthogonalLoop=1;jettySize=auto;html=1;" edge="1" parent="WIyWlLk6GJQsqaUBKTNV-1" source="maJuUDjPIXqnz5pIRUZ--7" target="maJuUDjPIXqnz5pIRUZ--9">
          <mxGeometry relative="1" as="geometry" />
        </mxCell>
        <mxCell id="maJuUDjPIXqnz5pIRUZ--7" value="Corregir bias y pesos" style="whiteSpace=wrap;html=1;rounded=1;" vertex="1" parent="WIyWlLk6GJQsqaUBKTNV-1">
          <mxGeometry x="524" y="575" width="125" height="30" as="geometry" />
        </mxCell>
        <mxCell id="maJuUDjPIXqnz5pIRUZ--11" style="edgeStyle=orthogonalEdgeStyle;rounded=0;orthogonalLoop=1;jettySize=auto;html=1;exitX=0.5;exitY=1;exitDx=0;exitDy=0;entryX=1;entryY=0.5;entryDx=0;entryDy=0;" edge="1" parent="WIyWlLk6GJQsqaUBKTNV-1" source="maJuUDjPIXqnz5pIRUZ--9" target="maJuUDjPIXqnz5pIRUZ--2">
          <mxGeometry relative="1" as="geometry" />
        </mxCell>
        <mxCell id="maJuUDjPIXqnz5pIRUZ--9" value="conError++" style="whiteSpace=wrap;html=1;rounded=1;" vertex="1" parent="WIyWlLk6GJQsqaUBKTNV-1">
          <mxGeometry x="531.5" y="640" width="110" height="20" as="geometry" />
        </mxCell>
        <mxCell id="maJuUDjPIXqnz5pIRUZ--19" value="" style="edgeStyle=orthogonalEdgeStyle;rounded=0;orthogonalLoop=1;jettySize=auto;html=1;" edge="1" parent="WIyWlLk6GJQsqaUBKTNV-1" source="maJuUDjPIXqnz5pIRUZ--16" target="maJuUDjPIXqnz5pIRUZ--18">
          <mxGeometry relative="1" as="geometry" />
        </mxCell>
        <mxCell id="maJuUDjPIXqnz5pIRUZ--16" value="itera++" style="whiteSpace=wrap;html=1;rounded=1;" vertex="1" parent="WIyWlLk6GJQsqaUBKTNV-1">
          <mxGeometry x="386.5" y="860" width="105" height="30" as="geometry" />
        </mxCell>
        <mxCell id="maJuUDjPIXqnz5pIRUZ--21" value="" style="edgeStyle=orthogonalEdgeStyle;rounded=0;orthogonalLoop=1;jettySize=auto;html=1;" edge="1" parent="WIyWlLk6GJQsqaUBKTNV-1" source="maJuUDjPIXqnz5pIRUZ--18" target="maJuUDjPIXqnz5pIRUZ--20">
          <mxGeometry relative="1" as="geometry" />
        </mxCell>
        <mxCell id="maJuUDjPIXqnz5pIRUZ--18" value="accuracy =&amp;nbsp; (n-conError)/n" style="whiteSpace=wrap;html=1;rounded=1;" vertex="1" parent="WIyWlLk6GJQsqaUBKTNV-1">
          <mxGeometry x="362.75" y="909" width="152.5" height="30" as="geometry" />
        </mxCell>
        <mxCell id="maJuUDjPIXqnz5pIRUZ--24" value="" style="edgeStyle=orthogonalEdgeStyle;rounded=0;orthogonalLoop=1;jettySize=auto;html=1;" edge="1" parent="WIyWlLk6GJQsqaUBKTNV-1" source="maJuUDjPIXqnz5pIRUZ--20" target="maJuUDjPIXqnz5pIRUZ--23">
          <mxGeometry relative="1" as="geometry" />
        </mxCell>
        <mxCell id="maJuUDjPIXqnz5pIRUZ--26" value="Si" style="edgeLabel;html=1;align=center;verticalAlign=middle;resizable=0;points=[];" vertex="1" connectable="0" parent="maJuUDjPIXqnz5pIRUZ--24">
          <mxGeometry x="-0.176" y="-1" relative="1" as="geometry">
            <mxPoint x="1" y="1" as="offset" />
          </mxGeometry>
        </mxCell>
        <mxCell id="maJuUDjPIXqnz5pIRUZ--29" style="edgeStyle=orthogonalEdgeStyle;rounded=0;orthogonalLoop=1;jettySize=auto;html=1;exitX=0.5;exitY=1;exitDx=0;exitDy=0;" edge="1" parent="WIyWlLk6GJQsqaUBKTNV-1" source="maJuUDjPIXqnz5pIRUZ--20" target="maJuUDjPIXqnz5pIRUZ--30">
          <mxGeometry relative="1" as="geometry">
            <mxPoint x="439" y="1059" as="targetPoint" />
          </mxGeometry>
        </mxCell>
        <mxCell id="maJuUDjPIXqnz5pIRUZ--20" value="accuracy &amp;lt; p aceptable &amp;amp;&amp;amp; itera &amp;lt;100" style="rhombus;whiteSpace=wrap;html=1;rounded=1;" vertex="1" parent="WIyWlLk6GJQsqaUBKTNV-1">
          <mxGeometry x="354" y="959" width="170" height="80" as="geometry" />
        </mxCell>
        <mxCell id="maJuUDjPIXqnz5pIRUZ--25" style="edgeStyle=orthogonalEdgeStyle;rounded=0;orthogonalLoop=1;jettySize=auto;html=1;exitX=0.5;exitY=0;exitDx=0;exitDy=0;entryX=0;entryY=0.5;entryDx=0;entryDy=0;" edge="1" parent="WIyWlLk6GJQsqaUBKTNV-1" source="maJuUDjPIXqnz5pIRUZ--23" target="aQLnE09ZSkkCIFIolBy8-9">
          <mxGeometry relative="1" as="geometry" />
        </mxCell>
        <mxCell id="maJuUDjPIXqnz5pIRUZ--23" value="n&amp;nbsp; = 0&lt;br&gt;conError = 0" style="whiteSpace=wrap;html=1;rounded=1;" vertex="1" parent="WIyWlLk6GJQsqaUBKTNV-1">
          <mxGeometry x="179" y="969" width="120" height="60" as="geometry" />
        </mxCell>
        <mxCell id="maJuUDjPIXqnz5pIRUZ--32" style="edgeStyle=orthogonalEdgeStyle;rounded=0;orthogonalLoop=1;jettySize=auto;html=1;exitX=0;exitY=0.5;exitDx=0;exitDy=0;entryX=0;entryY=0.5;entryDx=0;entryDy=0;" edge="1" parent="WIyWlLk6GJQsqaUBKTNV-1" source="maJuUDjPIXqnz5pIRUZ--30" target="maJuUDjPIXqnz5pIRUZ--31">
          <mxGeometry relative="1" as="geometry" />
        </mxCell>
        <mxCell id="maJuUDjPIXqnz5pIRUZ--30" value="itera&lt;br&gt;accuracy" style="shape=document;whiteSpace=wrap;html=1;boundedLbl=1;" vertex="1" parent="WIyWlLk6GJQsqaUBKTNV-1">
          <mxGeometry x="390" y="1059" width="109" height="60" as="geometry" />
        </mxCell>
        <mxCell id="maJuUDjPIXqnz5pIRUZ--31" value="Fin" style="ellipse;whiteSpace=wrap;html=1;aspect=fixed;" vertex="1" parent="WIyWlLk6GJQsqaUBKTNV-1">
          <mxGeometry x="424.5" y="1129" width="40" height="40" as="geometry" />
        </mxCell>
      </root>
    </mxGraphModel>
  </diagram>
</mxfile>
